Coordinates
version=1
nRows=12
nColumns=24
inDegrees=yes

Units are S.I. units (second, meters, Newtons, ...)
Angles are in degrees.

endheader
time	pelvis_tilt	pelvis_list	pelvis_rotation	pelvis_tx	pelvis_ty	pelvis_tz	hip_flexion_r	hip_adduction_r	hip_rotation_r	knee_angle_r	ankle_angle_r	subtalar_angle_r	mtp_angle_r	hip_flexion_l	hip_adduction_l	hip_rotation_l	knee_angle_l	ankle_angle_l	subtalar_angle_l	mtp_angle_l	lumbar_extension	lumbar_bending	lumbar_rotation
      1.26000000	     -7.17344844	     -0.01925024	      6.08701762	      0.48528727	      1.02813725	      1.43587773	     12.68475676	     -2.34050553	     -5.09243736	    -56.80698748	     -7.01820493	      8.78651874	    -42.96737266	     11.10608161	     -0.10946613	     -0.30966005	     -8.98578320	      4.15180941	     20.19436942	    -35.59172044	     -3.34509933	     -1.06800270	     -4.94249220
      1.27000000	     -7.28072561	     -0.35646490	      6.48116160	      0.48471402	      1.02921164	      1.43529689	     14.49344429	     -2.18279414	     -5.39611510	    -57.94209744	     -5.42733724	      8.67660719	    -42.81759885	     10.36515213	     -0.48477236	     -0.41056018	     -8.66499351	      4.07856488	     20.80102779	    -35.74670950	     -3.24502398	     -0.73608219	     -5.42377308
      1.28000000	     -7.35574515	     -0.69151777	      6.88836591	      0.48405528	      1.03018759	      1.43480596	     16.21702473	     -2.00770653	     -5.68809071	    -58.79783739	     -3.90908119	      8.37887442	    -42.84958930	      9.67913010	     -0.89665676	     -0.70541408	     -8.47370764	      4.02844587	     21.77290628	    -36.11715901	     -3.18165721	     -0.41111701	     -5.93721383
      1.29000000	     -7.36347774	     -0.95980070	      7.36422275	      0.48326521	      1.03110220	      1.43424238	     17.81645032	     -1.95407069	     -6.09013214	    -59.41903096	     -2.48776220	      7.97711055	    -42.69857663	      8.91530626	     -1.19893172	     -0.45087010	     -8.24803686	      3.94924988	     22.08307192	    -36.16967032	     -3.21263132	     -0.14936596	     -6.49320745
      1.30000000	     -7.53259020	     -1.21266381	      7.86396745	      0.48223523	      1.03170062	      1.43368982	     19.57713259	     -1.98733773	     -6.54033080	    -59.84298120	     -1.18603783	      7.57682374	    -42.66407020	      8.44852029	     -1.47055342	     -0.22247280	     -8.21894789	      3.92049803	     22.37295660	    -36.26507105	     -3.07639209	      0.07584792	     -7.07621413
      1.31000000	     -7.60751658	     -1.43690756	      8.36980910	      0.48113615	      1.03229730	      1.43318006	     21.17261663	     -2.04628723	     -6.98435232	    -60.00105026	     -0.01416457	      7.03168510	    -42.65817717	      7.90499998	     -1.73228706	      0.08526232	     -8.21665911	      3.88719499	     22.60579265	    -36.34440872	     -3.05684128	      0.28040545	     -7.64719023
      1.32000000	     -7.69208355	     -1.62128695	      8.86534409	      0.47992136	      1.03279535	      1.43267636	     22.73110813	     -2.17737851	     -7.42116473	    -59.93176089	      1.16725667	      6.37121738	    -43.83162102	      7.35451713	     -1.93643428	      0.63938689	     -8.17166087	      3.88279478	     22.44706608	    -36.77549731	     -3.04002816	      0.44663319	     -8.18245623
      1.33000000	     -7.75674303	     -1.81406907	      9.35864790	      0.47862808	      1.03321157	      1.43223286	     24.20183418	     -2.32831339	     -7.88803626	    -59.61280037	      2.05940485	      5.82755598	    -43.76204637	      6.86861772	     -2.19102594	      0.92546447	     -8.26447305	      3.88240099	     22.69619973	    -36.80605785	     -3.04990236	      0.62600891	     -8.70369668
      1.34000000	     -7.83419902	     -1.98087926	      9.80720642	      0.47725910	      1.03353943	      1.43182982	     25.62272536	     -2.51672064	     -8.31041238	    -59.05967476	      2.82407868	      5.29737805	    -43.72447490	      6.38151731	     -2.42298922	      1.22231608	     -8.32986121	      3.86616857	     22.85270683	    -36.83100430	     -3.05392221	      0.78164692	     -9.16301518
      1.35000000	     -7.90867388	     -2.13437406	     10.20584702	      0.47582371	      1.03378515	      1.43148871	     26.97735048	     -2.72948752	     -8.70888458	    -58.28560883	      3.46614655	      4.81804549	    -43.71541428	      5.88155289	     -2.65340456	      1.49760300	     -8.37863694	      3.84755863	     22.96310656	    -36.85283083	     -3.06959242	      0.92992120	     -9.55342239
      1.36000000	     -8.01177429	     -2.29739622	     10.53037792	      0.47433268	      1.03392618	      1.43122296	     28.28507862	     -2.92696500	     -9.07259156	    -57.25635261	      3.97751296	      4.32153605	    -43.87058429	      5.39492225	     -2.89749642	      1.76388749	     -8.40144467	      3.84363415	     22.97160824	    -36.89162995	     -3.05353776	      1.09330926	     -9.82394623
      1.37000000	     -8.05485518	     -2.42412389	     10.81940295	      0.47284983	      1.03404298	      1.43098872	     29.42354758	     -3.16861945	     -9.45822780	    -55.98917436	      4.45799583	      3.99047395	    -43.86428014	      4.82310527	     -3.13149219	      1.91682280	     -8.39744121	      3.79057123	     23.10172110	    -36.91103911	     -3.11144129	      1.23455541	    -10.05508859
